<mxfile host="app.diagrams.net" modified="2022-04-17T21:50:45.597Z" agent="5.0 (Macintosh; Intel Mac OS X 10_15_7) AppleWebKit/605.1.15 (KHTML, like Gecko) Version/15.4 Safari/605.1.15" etag="Txk_rJF1XZfa9xdGLVhH" version="17.4.5" type="github">
  <diagram id="JEsRGRC6VsItbtXo0jKI" name="Page-1">
    <mxGraphModel dx="1113" dy="759" grid="1" gridSize="10" guides="1" tooltips="1" connect="1" arrows="1" fold="1" page="1" pageScale="1" pageWidth="1654" pageHeight="2336" math="0" shadow="0">
      <root>
        <mxCell id="0" />
        <mxCell id="1" parent="0" />
        <mxCell id="tBItwVqtaiuMKxa26LUa-4" value="" style="edgeStyle=orthogonalEdgeStyle;rounded=0;orthogonalLoop=1;jettySize=auto;html=1;" parent="1" source="tBItwVqtaiuMKxa26LUa-1" target="tBItwVqtaiuMKxa26LUa-3" edge="1">
          <mxGeometry relative="1" as="geometry" />
        </mxCell>
        <mxCell id="tBItwVqtaiuMKxa26LUa-1" value="" style="sketch=0;html=1;dashed=0;whitespace=wrap;fillColor=#2875E2;strokeColor=#ffffff;points=[[0.005,0.63,0],[0.1,0.2,0],[0.9,0.2,0],[0.5,0,0],[0.995,0.63,0],[0.72,0.99,0],[0.5,1,0],[0.28,0.99,0]];shape=mxgraph.kubernetes.icon;prIcon=user" parent="1" vertex="1">
          <mxGeometry x="40" y="20" width="70" height="80" as="geometry" />
        </mxCell>
        <mxCell id="tBItwVqtaiuMKxa26LUa-2" value="Application User" style="text;html=1;resizable=0;autosize=1;align=center;verticalAlign=middle;points=[];fillColor=none;strokeColor=none;rounded=0;" parent="1" vertex="1">
          <mxGeometry x="25" y="110" width="100" height="20" as="geometry" />
        </mxCell>
        <mxCell id="tBItwVqtaiuMKxa26LUa-7" value="" style="edgeStyle=orthogonalEdgeStyle;rounded=0;orthogonalLoop=1;jettySize=auto;html=1;" parent="1" source="tBItwVqtaiuMKxa26LUa-3" target="tBItwVqtaiuMKxa26LUa-6" edge="1">
          <mxGeometry relative="1" as="geometry" />
        </mxCell>
        <mxCell id="tBItwVqtaiuMKxa26LUa-3" value="" style="outlineConnect=0;dashed=0;verticalLabelPosition=bottom;verticalAlign=top;align=center;html=1;shape=mxgraph.aws3.route_53;fillColor=#F58536;gradientColor=none;" parent="1" vertex="1">
          <mxGeometry x="210" y="17.25" width="70.5" height="85.5" as="geometry" />
        </mxCell>
        <mxCell id="tBItwVqtaiuMKxa26LUa-5" value="AWS Route 53&lt;br&gt;&amp;nbsp;or &lt;br&gt;similar routing service" style="text;html=1;resizable=0;autosize=1;align=center;verticalAlign=middle;points=[];fillColor=none;strokeColor=none;rounded=0;" parent="1" vertex="1">
          <mxGeometry x="180.25" y="110" width="130" height="50" as="geometry" />
        </mxCell>
        <mxCell id="tBItwVqtaiuMKxa26LUa-6" value="" style="outlineConnect=0;dashed=0;verticalLabelPosition=bottom;verticalAlign=top;align=center;html=1;shape=mxgraph.aws3.internet_gateway;fillColor=#F58534;gradientColor=none;" parent="1" vertex="1">
          <mxGeometry x="451" y="24" width="69" height="72" as="geometry" />
        </mxCell>
        <mxCell id="tBItwVqtaiuMKxa26LUa-11" value="" style="edgeStyle=orthogonalEdgeStyle;rounded=0;orthogonalLoop=1;jettySize=auto;html=1;" parent="1" edge="1">
          <mxGeometry relative="1" as="geometry">
            <mxPoint x="480" y="130" as="sourcePoint" />
            <mxPoint x="486.0588235294117" y="190" as="targetPoint" />
            <Array as="points">
              <mxPoint x="486" y="130" />
            </Array>
          </mxGeometry>
        </mxCell>
        <mxCell id="tBItwVqtaiuMKxa26LUa-8" value="Internet Gateway" style="text;html=1;resizable=0;autosize=1;align=center;verticalAlign=middle;points=[];fillColor=none;strokeColor=none;rounded=0;" parent="1" vertex="1">
          <mxGeometry x="430.5" y="110" width="110" height="20" as="geometry" />
        </mxCell>
        <mxCell id="tBItwVqtaiuMKxa26LUa-10" value="" style="whiteSpace=wrap;html=1;dashed=1;fillColor=none;" parent="1" vertex="1">
          <mxGeometry x="74.5" y="190" width="760" height="500" as="geometry" />
        </mxCell>
        <mxCell id="tBItwVqtaiuMKxa26LUa-14" value="" style="sketch=0;points=[[0,0,0],[0.25,0,0],[0.5,0,0],[0.75,0,0],[1,0,0],[0,1,0],[0.25,1,0],[0.5,1,0],[0.75,1,0],[1,1,0],[0,0.25,0],[0,0.5,0],[0,0.75,0],[1,0.25,0],[1,0.5,0],[1,0.75,0]];outlineConnect=0;fontColor=#232F3E;gradientColor=#945DF2;gradientDirection=north;fillColor=#5A30B5;strokeColor=#ffffff;dashed=0;verticalLabelPosition=bottom;verticalAlign=top;align=center;html=1;fontSize=12;fontStyle=0;aspect=fixed;shape=mxgraph.aws4.resourceIcon;resIcon=mxgraph.aws4.vpc;" parent="1" vertex="1">
          <mxGeometry x="32" y="210" width="90" height="90" as="geometry" />
        </mxCell>
        <mxCell id="tBItwVqtaiuMKxa26LUa-15" value="&lt;font style=&quot;font-size: 15px&quot;&gt;Virtual Private Cloud&lt;/font&gt;" style="text;html=1;resizable=0;autosize=1;align=center;verticalAlign=middle;points=[];rounded=0;dashed=1;fontSize=19;fillColor=#f5f5f5;fontColor=#333333;strokeColor=#666666;" parent="1" vertex="1">
          <mxGeometry x="2" y="320" width="150" height="30" as="geometry" />
        </mxCell>
        <mxCell id="tBItwVqtaiuMKxa26LUa-17" value="" style="rounded=0;whiteSpace=wrap;html=1;dashed=1;fontSize=15;fillColor=none;strokeColor=#FF9999;" parent="1" vertex="1">
          <mxGeometry x="170" y="220" width="290" height="420" as="geometry" />
        </mxCell>
        <mxCell id="tBItwVqtaiuMKxa26LUa-19" value="" style="rounded=0;whiteSpace=wrap;html=1;dashed=1;fontSize=15;fillColor=none;strokeColor=#FF6666;" parent="1" vertex="1">
          <mxGeometry x="509.5" y="220" width="290" height="420" as="geometry" />
        </mxCell>
        <mxCell id="tBItwVqtaiuMKxa26LUa-20" style="edgeStyle=orthogonalEdgeStyle;rounded=0;orthogonalLoop=1;jettySize=auto;html=1;exitX=0.5;exitY=1;exitDx=0;exitDy=0;fontSize=15;" parent="1" source="tBItwVqtaiuMKxa26LUa-19" target="tBItwVqtaiuMKxa26LUa-19" edge="1">
          <mxGeometry relative="1" as="geometry" />
        </mxCell>
        <mxCell id="tBItwVqtaiuMKxa26LUa-21" style="edgeStyle=orthogonalEdgeStyle;rounded=0;orthogonalLoop=1;jettySize=auto;html=1;exitX=0.5;exitY=1;exitDx=0;exitDy=0;fontSize=15;" parent="1" source="tBItwVqtaiuMKxa26LUa-19" target="tBItwVqtaiuMKxa26LUa-19" edge="1">
          <mxGeometry relative="1" as="geometry" />
        </mxCell>
        <mxCell id="tBItwVqtaiuMKxa26LUa-23" value="Zone 1" style="text;html=1;resizable=0;autosize=1;align=center;verticalAlign=middle;points=[];fillColor=none;strokeColor=none;rounded=0;dashed=1;fontSize=15;" parent="1" vertex="1">
          <mxGeometry x="280.5" y="660" width="60" height="20" as="geometry" />
        </mxCell>
        <mxCell id="tBItwVqtaiuMKxa26LUa-24" value="Zone n" style="text;html=1;resizable=0;autosize=1;align=center;verticalAlign=middle;points=[];fillColor=none;strokeColor=none;rounded=0;dashed=1;fontSize=15;" parent="1" vertex="1">
          <mxGeometry x="615" y="660" width="60" height="20" as="geometry" />
        </mxCell>
        <mxCell id="tBItwVqtaiuMKxa26LUa-26" value="" style="rounded=0;whiteSpace=wrap;html=1;dashed=1;fontSize=17;fillColor=none;" parent="1" vertex="1">
          <mxGeometry x="180.25" y="250" width="279.75" height="60" as="geometry" />
        </mxCell>
        <mxCell id="tBItwVqtaiuMKxa26LUa-27" value="Public Subnet" style="text;html=1;resizable=0;autosize=1;align=center;verticalAlign=middle;points=[];fillColor=none;strokeColor=none;rounded=0;dashed=1;fontSize=13;" parent="1" vertex="1">
          <mxGeometry x="180.62" y="275" width="100" height="20" as="geometry" />
        </mxCell>
        <mxCell id="tBItwVqtaiuMKxa26LUa-28" value="" style="rounded=0;whiteSpace=wrap;html=1;dashed=1;fontSize=17;fillColor=none;" parent="1" vertex="1">
          <mxGeometry x="510" y="250" width="279.75" height="60" as="geometry" />
        </mxCell>
        <mxCell id="tBItwVqtaiuMKxa26LUa-29" value="Public Subnet" style="text;html=1;resizable=0;autosize=1;align=center;verticalAlign=middle;points=[];fillColor=none;strokeColor=none;rounded=0;dashed=1;fontSize=13;" parent="1" vertex="1">
          <mxGeometry x="689.75" y="275" width="100" height="20" as="geometry" />
        </mxCell>
        <mxCell id="tBItwVqtaiuMKxa26LUa-30" value="" style="rounded=0;whiteSpace=wrap;html=1;dashed=1;fontSize=17;fillColor=none;" parent="1" vertex="1">
          <mxGeometry x="180.62" y="350" width="259.38" height="80" as="geometry" />
        </mxCell>
        <mxCell id="tBItwVqtaiuMKxa26LUa-31" value="" style="rounded=0;whiteSpace=wrap;html=1;dashed=1;fontSize=17;fillColor=none;" parent="1" vertex="1">
          <mxGeometry x="530" y="350" width="260" height="80" as="geometry" />
        </mxCell>
        <mxCell id="tBItwVqtaiuMKxa26LUa-32" value="Private Subnet" style="text;html=1;resizable=0;autosize=1;align=center;verticalAlign=middle;points=[];fillColor=none;strokeColor=none;rounded=0;dashed=1;fontSize=13;" parent="1" vertex="1">
          <mxGeometry x="180.62" y="400" width="100" height="20" as="geometry" />
        </mxCell>
        <mxCell id="tBItwVqtaiuMKxa26LUa-33" value="Private Subnet" style="text;html=1;resizable=0;autosize=1;align=center;verticalAlign=middle;points=[];fillColor=none;strokeColor=none;rounded=0;dashed=1;fontSize=13;" parent="1" vertex="1">
          <mxGeometry x="690" y="400" width="100" height="20" as="geometry" />
        </mxCell>
        <mxCell id="tBItwVqtaiuMKxa26LUa-34" value="" style="shape=image;html=1;verticalAlign=top;verticalLabelPosition=bottom;labelBackgroundColor=#ffffff;imageAspect=0;aspect=fixed;image=https://cdn2.iconfinder.com/data/icons/whcompare-isometric-web-hosting-servers/50/firewall-server-128.png;dashed=1;fontSize=15;strokeColor=#FF6666;" parent="1" vertex="1">
          <mxGeometry x="336" y="364" width="52" height="52" as="geometry" />
        </mxCell>
        <mxCell id="tBItwVqtaiuMKxa26LUa-36" value="WAF" style="text;html=1;resizable=0;autosize=1;align=center;verticalAlign=middle;points=[];fillColor=none;strokeColor=none;rounded=0;dashed=1;fontSize=15;" parent="1" vertex="1">
          <mxGeometry x="388" y="390" width="50" height="20" as="geometry" />
        </mxCell>
        <mxCell id="tBItwVqtaiuMKxa26LUa-37" value="WAF" style="text;html=1;resizable=0;autosize=1;align=center;verticalAlign=middle;points=[];fillColor=none;strokeColor=none;rounded=0;dashed=1;fontSize=15;" parent="1" vertex="1">
          <mxGeometry x="530" y="390" width="50" height="20" as="geometry" />
        </mxCell>
        <mxCell id="tBItwVqtaiuMKxa26LUa-38" value="" style="shape=image;html=1;verticalAlign=top;verticalLabelPosition=bottom;labelBackgroundColor=#ffffff;imageAspect=0;aspect=fixed;image=https://cdn2.iconfinder.com/data/icons/whcompare-isometric-web-hosting-servers/50/firewall-server-128.png;dashed=1;fontSize=15;strokeColor=#FF6666;" parent="1" vertex="1">
          <mxGeometry x="580" y="364" width="52" height="52" as="geometry" />
        </mxCell>
        <mxCell id="tBItwVqtaiuMKxa26LUa-46" value="" style="sketch=0;outlineConnect=0;fontColor=#232F3E;gradientColor=none;fillColor=#4D27AA;strokeColor=none;dashed=0;verticalLabelPosition=bottom;verticalAlign=top;align=center;html=1;fontSize=12;fontStyle=0;aspect=fixed;pointerEvents=1;shape=mxgraph.aws4.gateway_load_balancer;" parent="1" vertex="1">
          <mxGeometry x="442" y="242" width="78" height="78" as="geometry" />
        </mxCell>
        <mxCell id="tBItwVqtaiuMKxa26LUa-49" value="" style="endArrow=none;dashed=1;html=1;dashPattern=1 3;strokeWidth=2;rounded=0;fontSize=15;exitX=0.75;exitY=0;exitDx=0;exitDy=0;entryX=0.14;entryY=0.862;entryDx=0;entryDy=0;entryPerimeter=0;" parent="1" source="tBItwVqtaiuMKxa26LUa-30" target="tBItwVqtaiuMKxa26LUa-46" edge="1">
          <mxGeometry width="50" height="50" relative="1" as="geometry">
            <mxPoint x="403" y="360" as="sourcePoint" />
            <mxPoint x="453" y="310" as="targetPoint" />
          </mxGeometry>
        </mxCell>
        <mxCell id="tBItwVqtaiuMKxa26LUa-50" value="" style="endArrow=none;dashed=1;html=1;dashPattern=1 3;strokeWidth=2;rounded=0;fontSize=15;exitX=0.25;exitY=0;exitDx=0;exitDy=0;" parent="1" edge="1">
          <mxGeometry width="50" height="50" relative="1" as="geometry">
            <mxPoint x="600" y="350" as="sourcePoint" />
            <mxPoint x="515" y="310" as="targetPoint" />
          </mxGeometry>
        </mxCell>
        <mxCell id="fL-pzUH-JRbS0cCIP2o--1" value="" style="rounded=0;whiteSpace=wrap;html=1;dashed=1;fontSize=17;fillColor=none;" vertex="1" parent="1">
          <mxGeometry x="180.81" y="470" width="259.38" height="80" as="geometry" />
        </mxCell>
        <mxCell id="fL-pzUH-JRbS0cCIP2o--2" value="Private Subnet | APP / WEB LAYER" style="text;html=1;resizable=0;autosize=1;align=center;verticalAlign=middle;points=[];fillColor=none;strokeColor=none;rounded=0;dashed=1;fontSize=13;" vertex="1" parent="1">
          <mxGeometry x="189" y="520" width="220" height="20" as="geometry" />
        </mxCell>
        <mxCell id="fL-pzUH-JRbS0cCIP2o--3" value="" style="rounded=0;whiteSpace=wrap;html=1;dashed=1;fontSize=17;fillColor=none;" vertex="1" parent="1">
          <mxGeometry x="530" y="470" width="260" height="80" as="geometry" />
        </mxCell>
        <mxCell id="fL-pzUH-JRbS0cCIP2o--4" value="Private Subnet | APP / WEB LAYER" style="text;html=1;resizable=0;autosize=1;align=center;verticalAlign=middle;points=[];fillColor=none;strokeColor=none;rounded=0;dashed=1;fontSize=13;" vertex="1" parent="1">
          <mxGeometry x="560" y="520" width="220" height="20" as="geometry" />
        </mxCell>
        <mxCell id="fL-pzUH-JRbS0cCIP2o--5" value="" style="image;html=1;image=img/lib/clip_art/computers/Server_Rack_128x128.png;dashed=1;fontSize=15;strokeColor=#FF6666;" vertex="1" parent="1">
          <mxGeometry x="360" y="480" width="60" height="40" as="geometry" />
        </mxCell>
        <mxCell id="fL-pzUH-JRbS0cCIP2o--6" value="" style="image;html=1;image=img/lib/clip_art/computers/Server_Rack_128x128.png;dashed=1;fontSize=15;strokeColor=#FF6666;" vertex="1" parent="1">
          <mxGeometry x="555" y="480" width="60" height="40" as="geometry" />
        </mxCell>
        <mxCell id="fL-pzUH-JRbS0cCIP2o--11" value="" style="endArrow=classic;html=1;rounded=0;fontSize=15;" edge="1" parent="1">
          <mxGeometry width="50" height="50" relative="1" as="geometry">
            <mxPoint x="300" y="470" as="sourcePoint" />
            <mxPoint x="300" y="430" as="targetPoint" />
            <Array as="points">
              <mxPoint x="300" y="450" />
            </Array>
          </mxGeometry>
        </mxCell>
        <mxCell id="fL-pzUH-JRbS0cCIP2o--12" value="" style="endArrow=classic;html=1;rounded=0;fontSize=15;entryX=0.5;entryY=1;entryDx=0;entryDy=0;exitX=0.5;exitY=0;exitDx=0;exitDy=0;" edge="1" parent="1" source="fL-pzUH-JRbS0cCIP2o--3" target="tBItwVqtaiuMKxa26LUa-31">
          <mxGeometry width="50" height="50" relative="1" as="geometry">
            <mxPoint x="310" y="480" as="sourcePoint" />
            <mxPoint x="310" y="440" as="targetPoint" />
            <Array as="points">
              <mxPoint x="660" y="440" />
            </Array>
          </mxGeometry>
        </mxCell>
        <mxCell id="fL-pzUH-JRbS0cCIP2o--13" value="" style="dashed=0;outlineConnect=0;html=1;align=center;labelPosition=center;verticalLabelPosition=bottom;verticalAlign=top;shape=mxgraph.webicons.mongodb;gradientColor=#DFDEDE;fontSize=15;strokeColor=#FF6666;" vertex="1" parent="1">
          <mxGeometry x="180.81" y="560" width="71" height="60" as="geometry" />
        </mxCell>
        <mxCell id="fL-pzUH-JRbS0cCIP2o--17" value="" style="dashed=0;outlineConnect=0;html=1;align=center;labelPosition=center;verticalLabelPosition=bottom;verticalAlign=top;shape=mxgraph.webicons.mongodb;gradientColor=#DFDEDE;fontSize=15;strokeColor=#FF6666;" vertex="1" parent="1">
          <mxGeometry x="530" y="560" width="71" height="60" as="geometry" />
        </mxCell>
        <mxCell id="fL-pzUH-JRbS0cCIP2o--18" value="DB Clusters" style="text;html=1;resizable=0;autosize=1;align=center;verticalAlign=middle;points=[];fillColor=none;strokeColor=none;rounded=0;dashed=1;fontSize=15;" vertex="1" parent="1">
          <mxGeometry x="324" y="585" width="100" height="20" as="geometry" />
        </mxCell>
        <mxCell id="fL-pzUH-JRbS0cCIP2o--19" value="DB Clusters" style="text;html=1;resizable=0;autosize=1;align=center;verticalAlign=middle;points=[];fillColor=none;strokeColor=none;rounded=0;dashed=1;fontSize=15;" vertex="1" parent="1">
          <mxGeometry x="679.5" y="585" width="100" height="20" as="geometry" />
        </mxCell>
        <mxCell id="fL-pzUH-JRbS0cCIP2o--20" value="" style="sketch=0;aspect=fixed;html=1;points=[];align=center;image;fontSize=12;image=img/lib/mscae/Cache_Redis_Product.svg;dashed=1;strokeColor=#FF6666;" vertex="1" parent="1">
          <mxGeometry x="274" y="574" width="50" height="42" as="geometry" />
        </mxCell>
        <mxCell id="fL-pzUH-JRbS0cCIP2o--22" value="" style="sketch=0;aspect=fixed;html=1;points=[];align=center;image;fontSize=12;image=img/lib/mscae/Cache_Redis_Product.svg;dashed=1;strokeColor=#FF6666;" vertex="1" parent="1">
          <mxGeometry x="629.5" y="569" width="50" height="42" as="geometry" />
        </mxCell>
        <mxCell id="fL-pzUH-JRbS0cCIP2o--29" value="" style="editableCssRules=.*;shape=image;verticalLabelPosition=bottom;labelBackgroundColor=#ffffff;verticalAlign=top;aspect=fixed;imageAspect=0;image=data:image/svg+xml,PHN2ZyB4bWxucz0iaHR0cDovL3d3dy53My5vcmcvMjAwMC9zdmciIHhtbG5zOnY9Imh0dHBzOi8vdmVjdGEuaW8vbmFubyIgd2lkdGg9IjIwIiBoZWlnaHQ9IjEzLjUyOTk5OTczMjk3MTE5MSIgdmlld0JveD0iLTIuOTMyMDk3ODk3ODEyMDE0ZS05IC01LjI1ODAxNTA0MTgzNzk1NmUtMTUgMjAgMTMuNTI5OTk5NzMyOTcxMTkxIj4mI3hhOwk8c3R5bGUgdHlwZT0idGV4dC9jc3MiPiYjeGE7CS5zdDB7ZmlsbDojNDI4NWY0O30mI3hhOwkuc3Qxe2ZpbGw6IzY2OWRmNjt9JiN4YTsJPC9zdHlsZT4mI3hhOwk8cGF0aCBjbGFzcz0ic3QxIiBkPSJNOC44MyAxMC41OGgyLjMzdjIuNjRIOC44M3oiLz4mI3hhOwk8cGF0aCBjbGFzcz0ic3QwIiBkPSJNMTYuNDggOC42MWEuNTYuNTYgMCAwIDEtLjQtLjE3TDEyIDQuMjEgOS4yNiA3LjFhLjU3LjU3IDAgMCAxLS43Ni4wNUw2LjQyIDUuNDdsLTIuMiAyLjkyYS41Ni41NiAwIDAgMS0uNDUuMjJIMHYxLjcxYS43NS43NSAwIDAgMCAuNzQuNzVoMTguNTJhLjc1Ljc1IDAgMCAwIC43NC0uNzVWOC42MXoiLz4mI3hhOwk8cGF0aCBjbGFzcz0ic3QxIiBkPSJNMy41IDcuNWwyLjM4LTMuMTZhLjU1LjU1IDAgMCAxIC4zNy0uMjIuNjMuNjMgMCAwIDEgLjQyLjEybDIuMTIgMS43MiAyLjgtMi45NGEuNTQuNTQgMCAwIDEgLjQtLjE3aDBhLjU0LjU0IDAgMCAxIC40LjE3bDQuMzMgNC40OEgyMFYuNzRhLjc0Ljc0IDAgMCAwLS43NC0uNzRILjc0QS43NC43NCAwIDAgMCAwIC43NHY2LjgxeiIvPiYjeGE7CTxyZWN0IGNsYXNzPSJzdDAiIHg9IjYuNjciIHk9IjEyLjkyIiB3aWR0aD0iNi42NyIgaGVpZ2h0PSIuNjEiIHJ4PSIuMyIvPiYjeGE7PC9zdmc+;dashed=1;fontSize=15;strokeColor=#FF6666;" vertex="1" parent="1">
          <mxGeometry x="713.79" y="30" width="99.99" height="70" as="geometry" />
        </mxCell>
        <mxCell id="fL-pzUH-JRbS0cCIP2o--30" value="Cloud Monitoring tools like wazuh&lt;br&gt;&lt;br&gt;Intrusion Alert,logging" style="text;html=1;resizable=0;autosize=1;align=center;verticalAlign=middle;points=[];fillColor=none;strokeColor=none;rounded=0;dashed=1;fontSize=15;" vertex="1" parent="1">
          <mxGeometry x="643.79" y="120" width="240" height="60" as="geometry" />
        </mxCell>
        <mxCell id="fL-pzUH-JRbS0cCIP2o--31" value="" style="shape=image;html=1;verticalAlign=top;verticalLabelPosition=bottom;labelBackgroundColor=#ffffff;imageAspect=0;aspect=fixed;image=https://cdn1.iconfinder.com/data/icons/unicons-line-vol-5/24/react-128.png;dashed=1;fontSize=15;strokeColor=#FF6666;" vertex="1" parent="1">
          <mxGeometry x="288.31" y="470" width="44" height="44" as="geometry" />
        </mxCell>
        <mxCell id="fL-pzUH-JRbS0cCIP2o--32" value="" style="shape=image;html=1;verticalAlign=top;verticalLabelPosition=bottom;labelBackgroundColor=#ffffff;imageAspect=0;aspect=fixed;image=https://cdn1.iconfinder.com/data/icons/unicons-line-vol-5/24/react-128.png;dashed=1;fontSize=15;strokeColor=#FF6666;" vertex="1" parent="1">
          <mxGeometry x="648" y="470" width="44" height="44" as="geometry" />
        </mxCell>
      </root>
    </mxGraphModel>
  </diagram>
</mxfile>
